<svg width="26" height="33" viewBox="0 0 26 33" fill="none" xmlns="http://www.w3.org/2000/svg">
<path d="M0 27.208V25.083H3.417V12.5C3.417 10.222 4.11133 8.208 5.5 6.458C6.88933 4.708 8.695 3.597 10.917 3.125V1.958C10.917 1.40267 11.1113 0.937333 11.5 0.562C11.8893 0.187333 12.3617 0 12.917 0C13.4723 0 13.9447 0.187333 14.334 0.562C14.7227 0.937333 14.917 1.40267 14.917 1.958V3.125C17.139 3.597 18.9517 4.708 20.355 6.458C21.7577 8.208 22.459 10.222 22.459 12.5V25.083H25.834V27.208H0ZM12.917 32.083C12.1117 32.083 11.4103 31.7913 10.813 31.208C10.2157 30.6247 9.917 29.9163 9.917 29.083H15.917C15.917 29.9163 15.6253 30.6247 15.042 31.208C14.4587 31.7913 13.7503 32.083 12.917 32.083ZM5.5 25.083H20.334V12.5C20.334 10.4167 19.6187 8.65267 18.188 7.208C16.7573 5.764 15.0003 5.042 12.917 5.042C10.8617 5.042 9.11167 5.764 7.667 7.208C6.22233 8.65267 5.5 10.4167 5.5 12.5V25.083Z" fill="#31475C"/>
</svg>
