<svg width="64" height="64" viewBox="0 0 64 64" fill="none" xmlns="http://www.w3.org/2000/svg">
<circle cx="32" cy="32" r="32" fill="#31475C"/>
<path d="M28.125 47.833L27.417 42.792C26.889 42.6253 26.3263 42.3753 25.729 42.042C25.1317 41.7087 24.611 41.3473 24.167 40.958L19.5 43.042L16 36.875L20.167 33.792C20.111 33.514 20.0763 33.2153 20.063 32.896C20.049 32.5767 20.042 32.278 20.042 32C20.042 31.75 20.049 31.4653 20.063 31.146C20.0763 30.8267 20.111 30.514 20.167 30.208L16 27.125L19.5 21L24.167 23.042C24.639 22.6527 25.1667 22.2983 25.75 21.979C26.3333 21.6597 26.889 21.4027 27.417 21.208L28.125 16.167H35.125L35.833 21.208C36.389 21.4307 36.9447 21.6947 37.5 22C38.0553 22.3053 38.5553 22.6527 39 23.042L43.75 21L47.25 27.125L43 30.208C43.0833 30.514 43.132 30.8197 43.146 31.125C43.16 31.4303 43.167 31.722 43.167 32C43.167 32.278 43.153 32.5627 43.125 32.854C43.097 33.146 43.0553 33.4587 43 33.792L47.208 36.875L43.708 43.042L39 40.917C38.528 41.3337 38.021 41.7087 37.479 42.042C36.9377 42.3753 36.389 42.6253 35.833 42.792L35.125 47.833H28.125ZM31.583 36.792C32.9163 36.792 34.0553 36.3267 35 35.396C35.9447 34.4653 36.417 33.3333 36.417 32C36.417 30.6667 35.9447 29.5347 35 28.604C34.0553 27.6733 32.9163 27.208 31.583 27.208C30.2497 27.208 29.1177 27.6733 28.187 28.604C27.257 29.5347 26.792 30.6667 26.792 32C26.792 33.3333 27.257 34.4653 28.187 35.396C29.1177 36.3267 30.2497 36.792 31.583 36.792Z" fill="white"/>
</svg>
