<svg width="26" height="26" viewBox="0 0 26 26" fill="none" xmlns="http://www.w3.org/2000/svg">
<path d="M1.75 3.625C1.75 3.12772 1.94754 2.65081 2.29917 2.29917C2.65081 1.94754 3.12772 1.75 3.625 1.75H16.96C17.2063 1.74997 17.4502 1.79847 17.6778 1.89274C17.9053 1.987 18.1121 2.12518 18.2863 2.29938L20.6975 4.71063L23.7006 7.71375C23.8748 7.88789 24.013 8.09465 24.1073 8.32222C24.2015 8.54978 24.25 8.79369 24.25 9.04V22.375C24.25 22.8723 24.0525 23.3492 23.7008 23.7008C23.3492 24.0525 22.8723 24.25 22.375 24.25H3.625C3.12772 24.25 2.65081 24.0525 2.29917 23.7008C1.94754 23.3492 1.75 22.8723 1.75 22.375V3.625Z" stroke="#31475C" stroke-width="2.5" stroke-linejoin="round"/>
<path d="M17.375 14.25H8.625C8.12772 14.25 7.65081 14.4475 7.29917 14.7992C6.94754 15.1508 6.75 15.6277 6.75 16.125V24.25H19.25V16.125C19.25 15.6277 19.0525 15.1508 18.7008 14.7992C18.3492 14.4475 17.8723 14.25 17.375 14.25Z" fill="#31475C" stroke="#31475C" stroke-width="2.5" stroke-linejoin="round"/>
<path d="M16.125 8H8.625C8.12772 8 7.65081 7.80246 7.29917 7.45083C6.94754 7.09919 6.75 6.62228 6.75 6.125V1.75" stroke="#31475C" stroke-width="2.5" stroke-linecap="round" stroke-linejoin="round"/>
</svg>
