<svg width="30" height="30" viewBox="0 0 30 30" fill="none" xmlns="http://www.w3.org/2000/svg">
<path d="M7.5 22.5L12.3 12.3L22.5 7.5L17.7 17.7L7.5 22.5ZM15 13.65C14.642 13.65 14.2986 13.7922 14.0454 14.0454C13.7922 14.2986 13.65 14.642 13.65 15C13.65 15.358 13.7922 15.7014 14.0454 15.9546C14.2986 16.2078 14.642 16.35 15 16.35C15.358 16.35 15.7014 16.2078 15.9546 15.9546C16.2078 15.7014 16.35 15.358 16.35 15C16.35 14.642 16.2078 14.2986 15.9546 14.0454C15.7014 13.7922 15.358 13.65 15 13.65ZM15 0C16.9698 0 18.9204 0.387987 20.7403 1.14181C22.5601 1.89563 24.2137 3.00052 25.6066 4.3934C26.9995 5.78628 28.1044 7.43986 28.8582 9.25975C29.612 11.0796 30 13.0302 30 15C30 18.9782 28.4196 22.7936 25.6066 25.6066C22.7936 28.4196 18.9782 30 15 30C13.0302 30 11.0796 29.612 9.25975 28.8582C7.43986 28.1044 5.78628 26.9995 4.3934 25.6066C1.58035 22.7936 0 18.9782 0 15C0 11.0218 1.58035 7.20644 4.3934 4.3934C7.20644 1.58035 11.0218 0 15 0ZM15 3C11.8174 3 8.76515 4.26428 6.51472 6.51472C4.26428 8.76515 3 11.8174 3 15C3 18.1826 4.26428 21.2348 6.51472 23.4853C8.76515 25.7357 11.8174 27 15 27C18.1826 27 21.2348 25.7357 23.4853 23.4853C25.7357 21.2348 27 18.1826 27 15C27 11.8174 25.7357 8.76515 23.4853 6.51472C21.2348 4.26428 18.1826 3 15 3Z" fill="#31475C"/>
</svg>
