<svg width="62" height="64" viewBox="0 0 62 64" fill="none" xmlns="http://www.w3.org/2000/svg">
<ellipse cx="31" cy="32" rx="31" ry="32" fill="#31475C"/>
<mask id="mask0_134_906" style="mask-type:alpha" maskUnits="userSpaceOnUse" x="11" y="12" width="40" height="40">
<rect x="11" y="12" width="40" height="40" fill="#D9D9D9"/>
</mask>
<g mask="url(#mask0_134_906)">
<path d="M34.504 35.504L21.4 41.6L27.496 28.496L40.6 22.4M31 16C28.8989 16 26.8183 16.4139 24.8771 17.2179C22.9359 18.022 21.172 19.2006 19.6863 20.6863C16.6857 23.6869 15 27.7565 15 32C15 36.2435 16.6857 40.3131 19.6863 43.3137C21.172 44.7994 22.9359 45.978 24.8771 46.7821C26.8183 47.5861 28.8989 48 31 48C35.2435 48 39.3131 46.3143 42.3137 43.3137C45.3143 40.3131 47 36.2435 47 32C47 29.8989 46.5861 27.8183 45.7821 25.8771C44.978 23.9359 43.7994 22.172 42.3137 20.6863C40.828 19.2006 39.0641 18.022 37.1229 17.2179C35.1817 16.4139 33.1012 16 31 16ZM31 30.24C30.5332 30.24 30.0856 30.4254 29.7555 30.7555C29.4254 31.0856 29.24 31.5332 29.24 32C29.24 32.4668 29.4254 32.9144 29.7555 33.2445C30.0856 33.5746 30.5332 33.76 31 33.76C31.4668 33.76 31.9144 33.5746 32.2445 33.2445C32.5746 32.9144 32.76 32.4668 32.76 32C32.76 31.5332 32.5746 31.0856 32.2445 30.7555C31.9144 30.4254 31.4668 30.24 31 30.24Z" fill="white"/>
</g>
</svg>
