<svg width="64" height="64" viewBox="0 0 64 64" fill="none" xmlns="http://www.w3.org/2000/svg">
<circle cx="32" cy="32" r="32" fill="#31475C"/>
<path d="M35.285 35.285L23 41L28.715 28.715L41 23M32 17C30.0302 17 28.0796 17.388 26.2597 18.1418C24.4399 18.8956 22.7863 20.0005 21.3934 21.3934C18.5804 24.2064 17 28.0218 17 32C17 35.9782 18.5804 39.7936 21.3934 42.6066C22.7863 43.9995 24.4399 45.1044 26.2597 45.8582C28.0796 46.612 30.0302 47 32 47C35.9782 47 39.7936 45.4196 42.6066 42.6066C45.4196 39.7936 47 35.9782 47 32C47 30.0302 46.612 28.0796 45.8582 26.2597C45.1044 24.4399 43.9995 22.7863 42.6066 21.3934C41.2137 20.0005 39.5601 18.8956 37.7403 18.1418C35.9204 17.388 33.9698 17 32 17ZM32 30.35C31.5624 30.35 31.1427 30.5238 30.8333 30.8333C30.5238 31.1427 30.35 31.5624 30.35 32C30.35 32.4376 30.5238 32.8573 30.8333 33.1667C31.1427 33.4762 31.5624 33.65 32 33.65C32.4376 33.65 32.8573 33.4762 33.1667 33.1667C33.4762 32.8573 33.65 32.4376 33.65 32C33.65 31.5624 33.4762 31.1427 33.1667 30.8333C32.8573 30.5238 32.4376 30.35 32 30.35Z" fill="white"/>
</svg>
