<svg width="64" height="64" viewBox="0 0 64 64" fill="none" xmlns="http://www.w3.org/2000/svg">
<circle cx="32" cy="32" r="32" fill="#31475C"/>
<path d="M32.5 46C28.7944 46 25.5652 44.7713 22.8124 42.3138C20.0595 39.8563 18.4823 36.7887 18.0806 33.1111H21.3833C21.7593 35.9037 23.0014 38.213 25.1098 40.0389C27.2182 41.8648 29.6816 42.7778 32.5 42.7778C35.6417 42.7778 38.307 41.6833 40.4959 39.4943C42.6849 37.3054 43.7788 34.6406 43.7778 31.5C43.7778 28.3583 42.6833 25.693 40.4943 23.5041C38.3054 21.3151 35.6406 20.2211 32.5 20.2222C30.6472 20.2222 28.9153 20.6519 27.3042 21.5111C25.6931 22.3704 24.337 23.5519 23.2361 25.0556H27.6667V28.2778H18V18.6111H21.2222V22.3972C22.5917 20.6787 24.2635 19.3495 26.2376 18.4097C28.2118 17.4699 30.2992 17 32.5 17C34.5139 17 36.4005 17.3829 38.1598 18.1487C39.9192 18.9145 41.4497 19.9478 42.7515 21.2485C44.0533 22.5514 45.0871 24.0819 45.8529 25.8402C46.6187 27.5984 47.0011 29.485 47 31.5C47 33.5139 46.6171 35.4005 45.8513 37.1598C45.0855 38.9192 44.0522 40.4497 42.7515 41.7515C41.4486 43.0533 39.9181 44.0871 38.1598 44.8529C36.4016 45.6187 34.515 46.0011 32.5 46ZM37.0111 38.2667L30.8889 32.1444V23.4444H34.1111V30.8556L39.2667 36.0111L37.0111 38.2667Z" fill="white"/>
</svg>
