<svg width="29" height="29" viewBox="0 0 29 29" fill="none" xmlns="http://www.w3.org/2000/svg">
<path d="M14.5 29C10.7944 29 7.56524 27.7713 4.81239 25.3138C2.05954 22.8563 0.482259 19.7887 0.0805555 16.1111H3.38333C3.75926 18.9037 5.00143 21.213 7.10983 23.0389C9.21824 24.8648 11.6816 25.7778 14.5 25.7778C17.6417 25.7778 20.307 24.6833 22.4959 22.4943C24.6849 20.3054 25.7788 17.6406 25.7778 14.5C25.7778 11.3583 24.6833 8.69302 22.4943 6.50406C20.3054 4.31509 17.6406 3.22115 14.5 3.22222C12.6472 3.22222 10.9153 3.65185 9.30416 4.51111C7.69305 5.37037 6.33704 6.55185 5.23611 8.05555H9.66667V11.2778H0V1.61111H3.22222V5.39722C4.59167 3.6787 6.26346 2.34954 8.23761 1.40972C10.2118 0.469907 12.2992 0 14.5 0C16.5139 0 18.4005 0.382907 20.1598 1.14872C21.9192 1.91454 23.4497 2.9478 24.7515 4.2485C26.0533 5.55135 27.0871 7.08191 27.8529 8.84017C28.6187 10.5984 29.0011 12.485 29 14.5C29 16.5139 28.6171 18.4005 27.8513 20.1598C27.0855 21.9192 26.0522 23.4497 24.7515 24.7515C23.4486 26.0533 21.9181 27.0871 20.1598 27.8529C18.4016 28.6187 16.515 29.0011 14.5 29ZM19.0111 21.2667L12.8889 15.1444V6.44444H16.1111V13.8556L21.2667 19.0111L19.0111 21.2667Z" fill="#31475C"/>
</svg>
