<svg width="62" height="64" viewBox="0 0 62 64" fill="none" xmlns="http://www.w3.org/2000/svg">
<ellipse cx="31" cy="32" rx="31" ry="32" fill="#31475C"/>
<mask id="mask0_139_299" style="mask-type:alpha" maskUnits="userSpaceOnUse" x="11" y="12" width="40" height="40">
<rect x="11" y="12" width="40" height="40" fill="#D9D9D9"/>
</mask>
<g mask="url(#mask0_139_299)">
<path d="M31.5 46C27.7944 46 24.5652 44.7713 21.8124 42.3138C19.0595 39.8563 17.4823 36.7887 17.0806 33.1111H20.3833C20.7593 35.9037 22.0014 38.213 24.1098 40.0389C26.2182 41.8648 28.6816 42.7778 31.5 42.7778C34.6417 42.7778 37.307 41.6833 39.4959 39.4943C41.6849 37.3054 42.7788 34.6406 42.7778 31.5C42.7778 28.3583 41.6833 25.693 39.4943 23.5041C37.3054 21.3151 34.6406 20.2211 31.5 20.2222C29.6472 20.2222 27.9153 20.6519 26.3042 21.5111C24.6931 22.3704 23.337 23.5519 22.2361 25.0556H26.6667V28.2778H17V18.6111H20.2222V22.3972C21.5917 20.6787 23.2635 19.3495 25.2376 18.4097C27.2118 17.4699 29.2992 17 31.5 17C33.5139 17 35.4005 17.3829 37.1598 18.1487C38.9192 18.9145 40.4497 19.9478 41.7515 21.2485C43.0533 22.5514 44.0871 24.0819 44.8529 25.8402C45.6187 27.5984 46.0011 29.485 46 31.5C46 33.5139 45.6171 35.4005 44.8513 37.1598C44.0855 38.9192 43.0522 40.4497 41.7515 41.7515C40.4486 43.0533 38.9181 44.0871 37.1598 44.8529C35.4016 45.6187 33.515 46.0011 31.5 46ZM36.0111 38.2667L29.8889 32.1444V23.4444H33.1111V30.8556L38.2667 36.0111L36.0111 38.2667Z" fill="white"/>
</g>
</svg>
