<svg width="62" height="64" viewBox="0 0 62 64" fill="none" xmlns="http://www.w3.org/2000/svg">
<ellipse cx="31" cy="32" rx="31" ry="32" fill="#31475C"/>
<mask id="mask0_134_768" style="mask-type:alpha" maskUnits="userSpaceOnUse" x="11" y="12" width="40" height="40">
<rect x="11" y="12" width="40" height="40" fill="#D9D9D9"/>
</mask>
<g mask="url(#mask0_134_768)">
<path d="M19.8 23.6H17V43.2C17 44.74 18.26 46 19.8 46H39.4V43.2H19.8V23.6ZM42.2 18H25.4C23.86 18 22.6 19.26 22.6 20.8V37.6C22.6 39.14 23.86 40.4 25.4 40.4H42.2C43.74 40.4 45 39.14 45 37.6V20.8C45 19.26 43.74 18 42.2 18ZM42.2 32L38.7 29.9L35.2 32V20.8H42.2V32Z" fill="white"/>
</g>
</svg>
