<svg width="32" height="32" viewBox="0 0 32 32" fill="none" xmlns="http://www.w3.org/2000/svg">
<path d="M12.125 31.666L11.417 26.625C10.889 26.4583 10.3263 26.2083 9.729 25.875C9.13167 25.5417 8.611 25.1803 8.167 24.791L3.5 26.875L0 20.708L4.167 17.625C4.111 17.347 4.07633 17.0483 4.063 16.729C4.049 16.4097 4.042 16.111 4.042 15.833C4.042 15.583 4.049 15.2983 4.063 14.979C4.07633 14.6597 4.111 14.347 4.167 14.041L0 10.958L3.5 4.833L8.167 6.875C8.639 6.48567 9.16667 6.13133 9.75 5.812C10.3333 5.49267 10.889 5.23567 11.417 5.041L12.125 0H19.125L19.833 5.041C20.389 5.26367 20.9447 5.52767 21.5 5.833C22.0553 6.13833 22.5553 6.48567 23 6.875L27.75 4.833L31.25 10.958L27 14.041C27.0833 14.347 27.132 14.6527 27.146 14.958C27.16 15.2633 27.167 15.555 27.167 15.833C27.167 16.111 27.153 16.3957 27.125 16.687C27.097 16.979 27.0553 17.2917 27 17.625L31.208 20.708L27.708 26.875L23 24.75C22.528 25.1667 22.021 25.5417 21.479 25.875C20.9377 26.2083 20.389 26.4583 19.833 26.625L19.125 31.666H12.125ZM15.583 20.625C16.9163 20.625 18.0553 20.1597 19 19.229C19.9447 18.2983 20.417 17.1663 20.417 15.833C20.417 14.4997 19.9447 13.3677 19 12.437C18.0553 11.5063 16.9163 11.041 15.583 11.041C14.2497 11.041 13.1177 11.5063 12.187 12.437C11.257 13.3677 10.792 14.4997 10.792 15.833C10.792 17.1663 11.257 18.2983 12.187 19.229C13.1177 20.1597 14.2497 20.625 15.583 20.625ZM15.583 18.541C14.833 18.541 14.201 18.2773 13.687 17.75C13.1737 17.222 12.917 16.583 12.917 15.833C12.917 15.083 13.1737 14.444 13.687 13.916C14.201 13.3887 14.833 13.125 15.583 13.125C16.361 13.125 17.007 13.3887 17.521 13.916C18.035 14.444 18.292 15.083 18.292 15.833C18.292 16.583 18.035 17.222 17.521 17.75C17.007 18.2773 16.361 18.541 15.583 18.541ZM13.875 29.583H17.333L17.958 25C18.8193 24.7773 19.625 24.451 20.375 24.021C21.125 23.5903 21.8333 23.0417 22.5 22.375L26.792 24.208L28.458 21.291L24.667 18.5C24.8057 18.0273 24.9027 17.5757 24.958 17.145C25.014 16.715 25.042 16.2777 25.042 15.833C25.042 15.3883 25.014 14.9577 24.958 14.541C24.9027 14.1243 24.8057 13.68 24.667 13.208L28.5 10.375L26.833 7.458L22.5 9.333C21.9167 8.69433 21.2223 8.125 20.417 7.625C19.611 7.125 18.7777 6.80533 17.917 6.666L17.375 2.083H13.875L13.333 6.666C12.4443 6.86067 11.618 7.17333 10.854 7.604C10.09 8.03467 9.37467 8.597 8.708 9.291L4.417 7.458L2.75 10.375L6.542 13.166C6.40267 13.5827 6.30533 14.0133 6.25 14.458C6.19467 14.9027 6.167 15.361 6.167 15.833C6.167 16.305 6.19467 16.7563 6.25 17.187C6.30533 17.6177 6.38867 18.0553 6.5 18.5L2.75 21.291L4.417 24.208L8.708 22.375C9.34733 23.0417 10.049 23.5903 10.813 24.021C11.5763 24.451 12.4163 24.7773 13.333 25L13.875 29.583Z" fill="#31475C"/>
</svg>
