<svg width="62" height="64" viewBox="0 0 62 64" fill="none" xmlns="http://www.w3.org/2000/svg">
<ellipse cx="31" cy="32" rx="31" ry="32" fill="#31475C"/>
<mask id="mask0_134_851" style="mask-type:alpha" maskUnits="userSpaceOnUse" x="11" y="12" width="40" height="40">
<rect x="11" y="12" width="40" height="40" fill="#D9D9D9"/>
</mask>
<g mask="url(#mask0_134_851)">
<path d="M21.9771 21.948C22.3709 20.7961 23.1151 19.7961 24.1054 19.0882C25.0958 18.3803 26.2828 17.9998 27.5001 18H39.1667C40.7138 18 42.1975 18.6146 43.2915 19.7085C44.3854 20.8025 45 22.2862 45 23.8333V35.4999C45 38.0619 43.348 40.2365 41.052 41.0229V41.8722C41.052 42.6539 40.779 43.6525 40.1374 44.4762C39.463 45.3442 38.3921 45.9998 36.9244 45.9998H23.4611C22.6108 46.0057 21.7678 45.8426 20.9811 45.5198C20.1944 45.1971 19.4797 44.7212 18.8786 44.1198C18.2774 43.5184 17.8018 42.8035 17.4793 42.0167C17.1568 41.2299 16.994 40.3869 17.0002 39.5365V26.0803C17.0002 24.7993 17.4598 23.733 18.2742 22.9933C19.0675 22.2723 20.1058 21.9503 21.1278 21.9503H21.9771V21.948ZM21.6668 24.2813H21.1301C20.6612 24.2625 20.2021 24.4189 19.8422 24.72C19.5668 24.9696 19.3335 25.3826 19.3335 26.078V39.5389C19.3335 41.8559 21.1441 43.6689 23.4635 43.6689H36.9244C37.6221 43.6689 38.0304 43.3865 38.2964 43.0435C38.5534 42.7055 38.7 42.2965 38.7164 41.8722V41.3332H27.5001C25.953 41.3332 24.4693 40.7186 23.3753 39.6247C22.2814 38.5307 21.6668 37.047 21.6668 35.4999V24.2813ZM31.0001 27.3333H34.0171L27.8408 33.5072C27.7323 33.6157 27.6463 33.7445 27.5876 33.8862C27.5289 34.0279 27.4986 34.1798 27.4986 34.3332C27.4986 34.4866 27.5289 34.6385 27.5876 34.7803C27.6463 34.922 27.7323 35.0508 27.8408 35.1592C27.9492 35.2677 28.078 35.3538 28.2197 35.4125C28.3615 35.4712 28.5134 35.5014 28.6668 35.5014C28.8202 35.5014 28.9721 35.4712 29.1138 35.4125C29.2555 35.3538 29.3843 35.2677 29.4928 35.1592L35.6667 28.9829V31.9999C35.6667 32.3093 35.7896 32.6061 36.0084 32.8249C36.2272 33.0437 36.524 33.1666 36.8334 33.1666C37.1428 33.1666 37.4396 33.0437 37.6583 32.8249C37.8771 32.6061 38.0001 32.3093 38.0001 31.9999V26.1666C38.0001 25.8572 37.8771 25.5605 37.6583 25.3417C37.4396 25.1229 37.1428 25 36.8334 25H31.0001C30.6907 25 30.3939 25.1229 30.1751 25.3417C29.9563 25.5605 29.8334 25.8572 29.8334 26.1666C29.8334 26.476 29.9563 26.7728 30.1751 26.9916C30.3939 27.2104 30.6907 27.3333 31.0001 27.3333Z" fill="white"/>
</g>
</svg>
