<svg width="32" height="32" viewBox="0 0 32 32" fill="none" xmlns="http://www.w3.org/2000/svg">
<path d="M14.6668 9.33328C14.6668 8.97966 14.8073 8.64053 15.0573 8.39048C15.3074 8.14043 15.6465 7.99996 16.0001 7.99996H22.6667C23.0204 7.99996 23.3595 8.14043 23.6095 8.39048C23.8596 8.64053 24.0001 8.97966 24.0001 9.33328V15.9999C24.0001 16.3535 23.8596 16.6927 23.6095 16.9427C23.3595 17.1928 23.0204 17.3332 22.6667 17.3332C22.3131 17.3332 21.974 17.1928 21.7239 16.9427C21.4739 16.6927 21.3334 16.3535 21.3334 15.9999V12.5519L14.2775 19.6106C14.1535 19.7345 14.0063 19.8329 13.8443 19.9C13.6824 19.967 13.5088 20.0016 13.3335 20.0016C13.1581 20.0016 12.9845 19.967 12.8226 19.9C12.6606 19.8329 12.5134 19.7345 12.3895 19.6106C12.2655 19.4866 12.1672 19.3394 12.1001 19.1775C12.033 19.0155 11.9984 18.8419 11.9984 18.6666C11.9984 18.4912 12.033 18.3176 12.1001 18.1557C12.1672 17.9937 12.2655 17.8465 12.3895 17.7226L19.4481 10.6666H16.0001C15.6465 10.6666 15.3074 10.5261 15.0573 10.2761C14.8073 10.026 14.6668 9.6869 14.6668 9.33328ZM5.68816 4.51197C6.1382 3.1955 6.98867 2.05273 8.12051 1.24366C9.25234 0.434594 10.6089 -0.000254781 12.0001 1.11993e-07H25.3334C27.1015 1.11993e-07 28.7972 0.702375 30.0474 1.95261C31.2976 3.20285 32 4.89853 32 6.66663V19.9999C32 22.9279 30.112 25.4132 27.488 26.3119V27.2825C27.488 28.1758 27.176 29.3172 26.4427 30.2585C25.6721 31.2505 24.4481 31.9998 22.7707 31.9998H7.38415C6.41237 32.0066 5.44894 31.8201 4.54986 31.4512C3.65078 31.0824 2.83398 30.5385 2.14694 29.8512C1.45989 29.1639 0.916303 28.3469 0.547769 27.4477C0.179235 26.5485 -0.0068958 25.585 0.000195242 24.6132V9.23462C0.000195242 7.77062 0.525526 6.55196 1.45619 5.70663C2.36285 4.88264 3.54951 4.51464 4.7175 4.51464H5.68816V4.51197ZM5.3335 7.17863H4.72017C4.18428 7.1572 3.65959 7.3359 3.24818 7.67996C2.93351 7.96529 2.66685 8.43729 2.66685 9.23195V24.6159C2.66685 27.2638 4.73617 29.3358 7.38682 29.3358H22.7707C23.5681 29.3358 24.0347 29.0132 24.3387 28.6212C24.6324 28.2348 24.8 27.7674 24.8187 27.2825V26.6665H12.0001C10.232 26.6665 8.53635 25.9641 7.28611 24.7139C6.03587 23.4637 5.3335 21.768 5.3335 19.9999V7.17863ZM12.0001 2.66665C10.9393 2.66665 9.92186 3.08808 9.17172 3.83822C8.42158 4.58836 8.00015 5.60577 8.00015 6.66663V19.9999C8.00015 21.0607 8.42158 22.0782 9.17172 22.8283C9.92186 23.5784 10.9393 23.9999 12.0001 23.9999H25.3334C26.3942 23.9999 27.4117 23.5784 28.1618 22.8283C28.9119 22.0782 29.3334 21.0607 29.3334 19.9999V6.66663C29.3334 5.60577 28.9119 4.58836 28.1618 3.83822C27.4117 3.08808 26.3942 2.66665 25.3334 2.66665H12.0001Z" fill="#31475C"/>
</svg>
