<svg width="64" height="64" viewBox="0 0 64 64" fill="none" xmlns="http://www.w3.org/2000/svg">
<circle cx="32" cy="32" r="32" fill="#31475C"/>
<path d="M22.9771 21.948C23.3709 20.7961 24.1151 19.7961 25.1054 19.0882C26.0958 18.3803 27.2828 17.9998 28.5001 18H40.1667C41.7138 18 43.1975 18.6146 44.2915 19.7085C45.3854 20.8025 46 22.2862 46 23.8333V35.4999C46 38.0619 44.348 40.2365 42.052 41.0229V41.8722C42.052 42.6539 41.779 43.6525 41.1374 44.4762C40.463 45.3442 39.3921 45.9998 37.9244 45.9998H24.4611C23.6108 46.0057 22.7678 45.8426 21.9811 45.5198C21.1944 45.1971 20.4797 44.7212 19.8786 44.1198C19.2774 43.5184 18.8018 42.8035 18.4793 42.0167C18.1568 41.2299 17.994 40.3869 18.0002 39.5365V26.0803C18.0002 24.7993 18.4598 23.733 19.2742 22.9933C20.0675 22.2723 21.1058 21.9503 22.1278 21.9503H22.9771V21.948ZM22.6668 24.2813H22.1301C21.6612 24.2625 21.2021 24.4189 20.8422 24.72C20.5668 24.9696 20.3335 25.3826 20.3335 26.078V39.5389C20.3335 41.8559 22.1441 43.6689 24.4635 43.6689H37.9244C38.6221 43.6689 39.0304 43.3865 39.2964 43.0435C39.5534 42.7055 39.7 42.2965 39.7164 41.8722V41.3332H28.5001C26.953 41.3332 25.4693 40.7186 24.3753 39.6247C23.2814 38.5307 22.6668 37.047 22.6668 35.4999V24.2813ZM32.0001 27.3333H35.0171L28.8408 33.5072C28.7323 33.6157 28.6463 33.7445 28.5876 33.8862C28.5289 34.0279 28.4986 34.1798 28.4986 34.3332C28.4986 34.4866 28.5289 34.6385 28.5876 34.7803C28.6463 34.922 28.7323 35.0508 28.8408 35.1592C28.9492 35.2677 29.078 35.3538 29.2197 35.4125C29.3615 35.4712 29.5134 35.5014 29.6668 35.5014C29.8202 35.5014 29.9721 35.4712 30.1138 35.4125C30.2555 35.3538 30.3843 35.2677 30.4928 35.1592L36.6667 28.9829V31.9999C36.6667 32.3093 36.7896 32.6061 37.0084 32.8249C37.2272 33.0437 37.524 33.1666 37.8334 33.1666C38.1428 33.1666 38.4396 33.0437 38.6583 32.8249C38.8771 32.6061 39.0001 32.3093 39.0001 31.9999V26.1666C39.0001 25.8572 38.8771 25.5605 38.6583 25.3417C38.4396 25.1229 38.1428 25 37.8334 25H32.0001C31.6907 25 31.3939 25.1229 31.1751 25.3417C30.9563 25.5605 30.8334 25.8572 30.8334 26.1666C30.8334 26.476 30.9563 26.7728 31.1751 26.9916C31.3939 27.2104 31.6907 27.3333 32.0001 27.3333Z" fill="white"/>
</svg>
